<svg xmlns="http://www.w3.org/2000/svg" fill="none" viewBox="0 0 500 500" height="500" width="500">
<path fill="white" d="M479.21 178.21C478.63 176.33 478.02 174.47 477.39 172.61C475.23 166.22 472.79 159.96 470.12 153.82C469.26 151.87 468.39 149.93 467.48 148C459.921 131.837 450.58 116.569 439.63 102.48C437.99 100.37 436.33 98.29 434.63 96.24C432.93 94.19 431.36 92.38 429.69 90.49C428.357 88.99 427.003 87.5033 425.63 86.03C423.69 83.95 421.73 81.89 419.72 79.88C417.71 77.87 415.65 75.88 413.56 73.96C412.087 72.5933 410.6 71.24 409.1 69.9C407.21 68.23 405.3 66.58 403.35 64.96C398.683 61.0933 393.88 57.3933 388.94 53.86C387.373 52.7533 385.793 51.6567 384.2 50.57C381 48.41 377.753 46.33 374.46 44.33C369.507 41.3167 364.443 38.4867 359.27 35.84C354.097 33.1933 348.817 30.7267 343.43 28.44C336.25 25.4067 328.9 22.7167 321.38 20.37C306.128 15.6323 290.439 12.4331 274.55 10.82C266.393 9.99233 258.199 9.57846 250 9.57999C117.45 9.57999 10 117 10 249.58C10 382.16 117.45 489.58 250 489.58C258.196 489.581 266.386 489.167 274.54 488.34C290.43 486.732 306.119 483.532 321.37 478.79C328.877 476.45 336.227 473.76 343.42 470.72C345.78 469.72 348.12 468.67 350.42 467.6C353.393 466.227 356.33 464.803 359.23 463.33C364.397 460.663 369.46 457.833 374.42 454.84C377.72 452.84 380.967 450.757 384.16 448.59C385.747 447.523 387.327 446.427 388.9 445.3C392.04 443.067 395.12 440.763 398.14 438.39C404.927 433.056 411.42 427.357 417.59 421.32C419.66 419.32 421.7 417.26 423.7 415.17C430.327 408.212 436.535 400.865 442.29 393.17C451.924 380.313 460.243 366.52 467.12 352C468.26 349.58 469.363 347.14 470.43 344.68C472.977 338.773 475.31 332.75 477.43 326.61C478.69 322.89 479.86 319.13 480.94 315.33C482.02 311.53 483.02 307.697 483.94 303.83C486.203 294.057 487.843 284.151 488.85 274.17C489.649 265.998 490.033 257.791 490 249.58C490.022 225.382 486.384 201.32 479.21 178.21V178.21ZM88.78 410.8C63.3397 385.28 44.3012 354.101 33.2217 319.812C22.1422 285.523 19.3362 249.098 25.0333 213.517C30.7304 177.936 44.7688 144.208 66.0003 115.093C87.2318 85.9775 115.053 62.3011 147.19 46C92.31 88.36 55.8 163.7 55.8 249.58C55.8 335.46 92.31 410.8 147.19 453.21C125.596 442.258 105.88 427.943 88.78 410.8V410.8ZM67.78 249.58C67.78 161.19 108.18 84.38 167.1 46.58C123.55 89.09 94.62 164.12 94.62 249.58C94.62 335.04 123.55 410.08 167.1 452.58C108.2 414.78 67.8 338 67.8 249.58H67.78ZM150.2 412.77C122.09 369.36 106.62 311.4 106.62 249.58C106.62 187.76 122.11 129.81 150.22 86.4C162.69 67.13 176.94 51.87 192.33 41C157.18 82.32 133.48 160.25 133.48 249.58C133.48 338.91 157.18 416.84 192.33 458.16C176.94 447.29 162.69 432 150.22 412.77H150.2ZM212.51 461.67C199.86 450.67 188.37 434.67 178.38 414.05C157.15 370.32 145.46 311.91 145.46 249.58C145.46 187.25 157.17 128.85 178.4 85.12C188.4 64.54 199.88 48.51 212.53 37.49C213.28 36.84 214.03 36.22 214.78 35.61C189.58 75.28 172.32 156.2 172.32 249.61C172.32 343.02 189.58 423.91 214.78 463.61C214 462.94 213.28 462.33 212.53 461.67H212.51ZM206.51 415.59C192.21 371.42 184.34 312.47 184.34 249.59C184.34 186.71 192.21 127.75 206.51 83.59C214.58 58.65 224.51 39.88 234.4 29.84C220.71 67 211.16 151.37 211.16 249.58C211.16 347.79 220.71 432.19 234.38 469.34C224.46 459.3 214.56 440.53 206.49 415.59H206.51ZM232.91 407.59C226.63 364.15 223.18 308.03 223.18 249.59C223.18 191.15 226.63 135.01 232.91 91.59C239.24 47.72 246.36 30.59 250.02 24.33V474.85C246.34 468.57 239.22 451.46 232.89 407.6L232.91 407.59Z"></path>
</svg>
