<svg xmlns="http://www.w3.org/2000/svg" fill="none" viewBox="0 0 480 480" height="480" width="480">
<path fill="white" d="M479.86 232.09C479.451 219.412 478.04 206.786 475.64 194.33H475.74L474.95 190.87C474.36 188.04 473.72 185.24 473.03 182.45L472.22 178.9H472.14C468.92 166.618 464.723 154.613 459.59 143H459.67L458.26 140.08C457.01 137.36 455.72 134.66 454.37 132L452.8 128.74H452.71C446.825 117.503 440.061 106.75 432.48 96.58L432.57 96.51L428.91 91.91C428.75 91.71 428.58 91.51 428.43 91.31L422.71 84.14L422.6 84.22C414.359 74.5942 405.378 65.6269 395.74 57.4L395.82 57.29L388.62 51.55L388.06 51.1L383.45 47.43L383.38 47.52C373.21 39.9392 362.457 33.1748 351.22 27.29V27.2L348 25.64C345.333 24.3067 342.63 23.0033 339.89 21.73L336.99 20.33V20.41C325.38 15.2771 313.379 11.0804 301.1 7.86V7.78L297.56 7C294.78 6.33333 291.987 5.69333 289.18 5.08L285.69 4.29V4.39C273.234 1.98994 260.608 0.578874 247.93 0.17V0H232.09V169.77L194.31 4.26L178.88 7.78L216.66 173.29L143 20.33L128.74 27.2L202.4 180.2L96.55 47.43L84.18 57.29L190 190L57.29 84.18L47.43 96.55L180.16 202.4L27.16 128.74L20.33 143L173.33 216.66L7.78 178.88L4.26 194.31L169.77 232.09H0V247.91H169.77L4.26 285.69L7.78 301.12L173.29 263.34L20.33 337L27.2 351.26L180.2 277.6L47.43 383.45L57.29 395.82L190 290L84.18 422.71L96.55 432.57L202.4 299.84L128.74 452.84L143 459.67L216.66 306.67L178.88 472.22L194.31 475.74L232.09 310.23V480H247.91V479.86C260.588 479.451 273.214 478.04 285.67 475.64V475.74L289.1 474.96C291.94 474.37 294.77 473.72 297.58 473.03L301.1 472.22V472.14C313.382 468.92 325.387 464.723 337 459.59V459.67L339.92 458.26C342.64 457.02 345.33 455.723 347.99 454.37L351.26 452.8V452.71C362.497 446.825 373.25 440.061 383.42 432.48L383.49 432.57L388.08 428.91L388.73 428.4L395.86 422.71L395.78 422.6C405.42 414.36 414.4 405.38 422.64 395.74L422.75 395.82L428.41 388.72L428.96 388.03L432.61 383.45L432.52 383.38C440.101 373.21 446.865 362.457 452.75 351.22H452.84L454.39 348C455.723 345.333 457.033 342.613 458.32 339.84L459.71 336.96H459.63C464.762 325.357 468.959 313.362 472.18 301.09H472.26L473.08 297.49C473.76 294.74 474.4 291.98 474.98 289.2L475.78 285.66H475.68C478.08 273.204 479.491 260.578 479.9 247.9H480V232.09H479.86ZM235.39 295.75C234.283 295.663 233.183 295.543 232.09 295.39C229.04 294.973 226.03 294.304 223.09 293.39C222.03 293.05 220.99 292.68 219.96 292.29C217.085 291.186 214.306 289.848 211.65 288.29C210.65 287.73 209.75 287.15 208.84 286.53C206.283 284.812 203.874 282.882 201.64 280.76C200.83 280 200.05 279.22 199.28 278.41C197.167 276.175 195.241 273.77 193.52 271.22C192.9 270.3 192.32 269.35 191.76 268.4C190.202 265.744 188.864 262.965 187.76 260.09C187.37 259.09 187 258.02 186.66 256.96C185.746 254.02 185.077 251.01 184.66 247.96C184.507 246.867 184.387 245.767 184.3 244.66C184.17 243.14 184.09 241.6 184.09 240.05C184.09 238.5 184.17 236.96 184.3 235.44C184.387 234.333 184.507 233.233 184.66 232.14C185.077 229.09 185.746 226.08 186.66 223.14C186.99 222.08 187.37 221.04 187.76 220.01C188.864 217.135 190.202 214.356 191.76 211.7C192.32 210.7 192.9 209.8 193.52 208.88C195.241 206.33 197.167 203.925 199.28 201.69C200.04 200.88 200.83 200.09 201.64 199.33C203.875 197.217 206.28 195.291 208.83 193.57C209.75 192.95 210.7 192.37 211.65 191.81C214.306 190.252 217.085 188.914 219.96 187.81C220.96 187.42 222.03 187.04 223.09 186.71C226.03 185.796 229.04 185.127 232.09 184.71C233.18 184.55 234.28 184.44 235.39 184.35C236.91 184.22 238.45 184.14 240 184.14V296C238.45 296 236.91 295.88 235.39 295.75Z"></path>
</svg>
