<svg xmlns="http://www.w3.org/2000/svg" fill="none" viewBox="0 0 500 500" height="500" width="500">
<path fill="white" d="M479.22 178.75C478.64 176.87 478.037 175 477.41 173.14C465.581 138.197 445.869 106.444 419.8 80.34C418.45 78.98 417.07 77.64 415.69 76.34C398.96 60.3726 380.015 46.9007 359.44 36.34C354.267 33.6733 348.993 31.2067 343.62 28.94C314.108 16.4227 282.377 9.98114 250.32 10V10C118 10 10.65 117.52 10.65 250.16C10.65 382.8 118 490.33 250.32 490.33C284.351 490.382 317.999 483.146 349 469.11C352.54 467.51 356.033 465.823 359.48 464.05C369.777 458.771 379.68 452.756 389.11 446.05C392.237 443.81 395.313 441.503 398.34 439.13C404.34 434.383 410.137 429.353 415.73 424.04C418.497 421.373 421.207 418.657 423.86 415.89C427.86 411.723 431.677 407.413 435.31 402.96C453.841 380.483 468.121 354.817 477.45 327.22C478.703 323.5 479.87 319.74 480.95 315.94C482.03 312.14 483.013 308.303 483.9 304.43C486.154 294.649 487.79 284.736 488.8 274.75C489.615 266.579 490.016 258.372 490 250.16C490.025 225.95 486.391 201.874 479.22 178.75V178.75ZM102.55 250.16C102.533 232.879 103.807 215.621 106.36 198.53C128.362 192.942 150.726 188.889 173.29 186.4C171.43 206.71 170.43 228.08 170.43 250.16C170.43 272.24 171.43 293.62 173.29 313.93C150.726 311.438 128.362 307.382 106.36 301.79C103.806 284.699 102.533 267.441 102.55 250.16V250.16ZM93.75 298.26C90.65 297.333 87.6167 296.373 84.65 295.38C46.41 282.61 22.65 265.28 22.65 250.16C22.65 235.04 46.4 217.72 84.65 204.95C87.6167 203.963 90.65 203.003 93.75 202.07C89.4701 233.991 89.4701 266.34 93.75 298.26V298.26ZM182.44 250.16C182.44 227.82 183.44 205.98 185.44 185.16C206.25 183.16 228.04 182.16 250.32 182.16V318.21C228.04 318.21 206.25 317.21 185.44 315.21C183.47 294.34 182.44 272.5 182.44 250.16ZM250.32 170.16C228.32 170.16 206.97 171.16 186.71 173.01C190.51 139.89 196.78 109.59 205.23 84.18C218 45.81 235.25 22 250.32 22V170.16ZM250.32 330.27V478.37C235.25 478.37 217.97 454.56 205.23 416.24C196.78 390.84 190.51 360.54 186.71 327.41C207 329.22 228.3 330.22 250.32 330.22V330.27ZM174.52 174.27C152.298 176.65 130.252 180.462 108.52 185.68C115.6 148.68 128.77 114.9 147.29 87.06C168.01 55.91 193.55 35.17 221.11 26.58C199.22 52.39 182 106.61 174.52 174.2V174.27ZM174.52 326.2C182.01 393.78 199.22 448.01 221.16 473.89C193.6 465.29 168.06 444.55 147.34 413.4C128.82 385.57 115.65 351.75 108.57 314.78C130.287 319.976 152.316 323.767 174.52 326.13V326.2ZM89.35 88.82C115.589 62.4003 147.942 42.8629 183.54 31.94C140.64 61.65 108 119.09 95.78 189C63.49 198.11 38.51 210 24.19 223.61C30.0131 172.596 52.9874 125.071 89.35 88.82V88.82ZM89.35 411.5C52.9922 375.258 30.0181 327.744 24.19 276.74C38.51 290.33 63.49 302.24 95.78 311.35C108 381.24 140.64 438.68 183.54 468.35C147.947 457.431 115.596 437.905 89.35 411.5V411.5Z"></path>
</svg>
